{
  "source": "C:\\Users\\Peter\\Desktop\\stuff\\MIUN\\quantitative_research\\video_compression\\videos\\BVI-HD\\BVI-HD_CDVL_videos\\ORIG\\CloudsZoom_1920x1080_60fps.mp4",
  "output": "C:\\Users\\Peter\\Desktop\\stuff\\MIUN\\quantitative_research\\video_compression\\compressed_videos\\BVI-HD\\av1\\3\\CloudsZoom_1920x1080_60fps_av1.mkv",
  "codec": "av1",
  "ok": "Input #0, mov,mp4,m4a,3gp,3g2,mj2, from 'C:\\Users\\Peter\\Desktop\\stuff\\MIUN\\quantitative_research\\video_compression\\videos\\BVI-HD\\BVI-HD_CDVL_videos\\ORIG\\CloudsZoom_1920x1080_60fps.mp4':\n  Metadata:\n    major_brand     : isom\n    minor_version   : 512\n    compatible_brands: isomiso2avc1mp41\n    encoder         : Lavf54.28.101\n  Duration: 00:00:05.00, start: 0.000000, bitrate: 32589 kb/s\n  Stream #0:0[0x1](und): Video: h264 (High 4:4:4 Predictive) (avc1 / 0x31637661), yuv420p(progressive), 1920x1080, 32586 kb/s, 60 fps, 60 tbr, 60 tbn (default)\n    Metadata:\n      handler_name    : VideoHandler\n      vendor_id       : [0][0][0][0]\n[out#0/matroska @ 00000223444590c0] Codec AVOption b:a (set bitrate (in bits/s)) has not been used for any stream. The most likely reason is either wrong type (e.g. a video option with no video streams) or that it is a private option of some decoder which was not actually used for any stream.\nStream mapping:\n  Stream #0:0 -> #0:0 (h264 (native) -> av1 (libsvtav1))\nPress [q] to stop, [?] for help\nSvt[info]: -------------------------------------------\nSvt[info]: SVT [version]:\tSVT-AV1 Encoder Lib v3.1.0-19-g6ecfe8ec\nSvt[info]: SVT [build]  :\tGCC 15.2.0\t 64 bit\nSvt[info]: LIB Build date: Aug 17 2025 11:37:13\nSvt[info]: -------------------------------------------\nSvt[info]: Level of Parallelism: 5\nSvt[info]: Number of PPCS 93\nSvt[info]: [asm level on system : up to avx2]\nSvt[info]: [asm level selected : up to avx2]\nSvt[info]: -------------------------------------------\nSvt[info]: SVT [config]: main profile\ttier (auto)\tlevel (auto)\nSvt[info]: SVT [config]: width / height / fps numerator / fps denominator \t\t: 1920 / 1080 / 60 / 1\nSvt[info]: SVT [config]: bit-depth / color format \t\t\t\t\t: 8 / YUV420\nSvt[info]: SVT [config]: preset / tune / pred struct \t\t\t\t\t: 4 / PSNR / random access\nSvt[info]: SVT [config]: gop size / mini-gop size / key-frame type \t\t\t: 321 / 16 / key frame\nSvt[info]: SVT [config]: BRC mode / target bitrate (kbps)\t\t\t\t: VBR / 3000 \nSvt[info]: SVT [config]: AQ mode / Variance Boost \t\t\t\t\t: 2 / 0\nSvt[info]: SVT [config]: sharpness / luminance-based QP bias \t\t\t\t: 0 / 0\nSvt[info]: SVT [config]: QP scale compress strength \t\t\t\t\t: 0\nSvt[info]: -------------------------------------------\nOutput #0, matroska, to 'C:\\Users\\Peter\\Desktop\\stuff\\MIUN\\quantitative_research\\video_compression\\compressed_videos\\BVI-HD\\av1\\3\\CloudsZoom_1920x1080_60fps_av1.mkv':\n  Metadata:\n    major_brand     : isom\n    minor_version   : 512\n    compatible_brands: isomiso2avc1mp41\n    encoder         : Lavf62.3.100\n  Stream #0:0(und): Video: av1 (AV01 / 0x31305641), yuv420p(tv, progressive), 1920x1080, q=2-31, 3000 kb/s, 60 fps, 1k tbn (default)\n    Metadata:\n      encoder         : Lavc62.11.100 libsvtav1\n      handler_name    : VideoHandler\n      vendor_id       : [0][0][0][0]\n    Side data:\n      cpb: bitrate max/min/avg: 0/0/3000000 buffer size: 3000000 vbv_delay: N/A\nframe=    0 fps=0.0 q=0.0 size=       0KiB time=N/A bitrate=N/A speed=N/A elapsed=0:00:01.03    \nframe=    0 fps=0.0 q=0.0 size=       0KiB time=N/A bitrate=N/A speed=N/A elapsed=0:00:01.56    \nframe=    0 fps=0.0 q=0.0 size=       0KiB time=N/A bitrate=N/A speed=N/A elapsed=0:00:02.09    \nframe=    0 fps=0.0 q=0.0 size=       0KiB time=N/A bitrate=N/A speed=N/A elapsed=0:00:02.62    \nframe=    0 fps=0.0 q=0.0 size=       0KiB time=N/A bitrate=N/A speed=N/A elapsed=0:00:03.14    \nframe=    1 fps=0.3 q=2.0 size=       1KiB time=00:00:00.00 bitrate=N/A speed=   0x elapsed=0:00:03.66    \nframe=    7 fps=1.7 q=19.0 size=       1KiB time=00:00:00.08 bitrate=  68.4kbits/s speed=0.0197x elapsed=0:00:04.22    \nframe=   13 fps=2.7 q=17.0 size=       1KiB time=00:00:00.20 bitrate=  28.5kbits/s speed=0.0416x elapsed=0:00:04.80    \nframe=   15 fps=2.8 q=17.0 size=       1KiB time=00:00:00.23 bitrate=  24.4kbits/s speed=0.0435x elapsed=0:00:05.36    \nframe=   22 fps=3.7 q=13.0 size=       1KiB time=00:00:00.35 bitrate=  16.3kbits/s speed=0.0595x elapsed=0:00:05.88    \nframe=   26 fps=4.0 q=11.0 size=       1KiB time=00:00:00.41 bitrate=  13.7kbits/s speed=0.0649x elapsed=0:00:06.42    \nframe=   30 fps=4.3 q=11.0 size=       1KiB time=00:00:00.48 bitrate=  11.8kbits/s speed=0.0691x elapsed=0:00:06.99    \nframe=   32 fps=4.3 q=12.0 size=       1KiB time=00:00:00.50 bitrate=  11.4kbits/s speed=0.0666x elapsed=0:00:07.50    \nframe=   34 fps=4.2 q=7.0 size=       1KiB time=00:00:00.55 bitrate=  10.4kbits/s speed=0.0681x elapsed=0:00:08.08    \nframe=   35 fps=4.0 q=7.0 size=       1KiB time=00:00:00.56 bitrate=  10.1kbits/s speed=0.0653x elapsed=0:00:08.67    \nframe=   37 fps=4.0 q=7.0 size=       1KiB time=00:00:00.60 bitrate=   9.5kbits/s speed=0.0647x elapsed=0:00:09.27    \nframe=   39 fps=4.0 q=8.0 size=       1KiB time=00:00:00.63 bitrate=   9.0kbits/s speed=0.0643x elapsed=0:00:09.85    \nframe=   41 fps=3.9 q=6.0 size=       1KiB time=00:00:00.66 bitrate=   8.5kbits/s speed=0.064x elapsed=0:00:10.41    \nframe=   44 fps=4.0 q=7.0 size=       1KiB time=00:00:00.71 bitrate=   7.9kbits/s speed=0.0653x elapsed=0:00:10.97    \nframe=   46 fps=4.0 q=11.0 size=       1KiB time=00:00:00.75 bitrate=   7.6kbits/s speed=0.0649x elapsed=0:00:11.55    \nframe=   50 fps=4.1 q=9.0 size=       1KiB time=00:00:00.81 bitrate=   7.0kbits/s speed=0.0673x elapsed=0:00:12.12    \nframe=   52 fps=4.1 q=8.0 size=       1KiB time=00:00:00.83 bitrate=   6.8kbits/s speed=0.0657x elapsed=0:00:12.69    \nframe=   54 fps=4.1 q=10.0 size=       1KiB time=00:00:00.88 bitrate=   6.4kbits/s speed=0.0668x elapsed=0:00:13.21    \nframe=   58 fps=4.2 q=8.0 size=       1KiB time=00:00:00.95 bitrate=   6.0kbits/s speed=0.0692x elapsed=0:00:13.73    \nframe=   62 fps=4.3 q=10.0 size=       1KiB time=00:00:01.00 bitrate=   5.7kbits/s speed=0.0701x elapsed=0:00:14.27    \nframe=   67 fps=4.5 q=9.0 size=       1KiB time=00:00:01.10 bitrate=   5.2kbits/s speed=0.0742x elapsed=0:00:14.83    \nframe=   70 fps=4.6 q=8.0 size=       1KiB time=00:00:01.15 bitrate=   5.0kbits/s speed=0.075x elapsed=0:00:15.33    \nframe=   74 fps=4.7 q=8.0 size=       1KiB time=00:00:01.21 bitrate=   4.7kbits/s speed=0.0767x elapsed=0:00:15.86    \nframe=   80 fps=4.9 q=10.0 size=       1KiB time=00:00:01.31 bitrate=   4.3kbits/s speed=0.0803x elapsed=0:00:16.40    \nframe=   84 fps=5.0 q=7.0 size=       1KiB time=00:00:01.38 bitrate=   4.1kbits/s speed=0.0818x elapsed=0:00:16.91    \nframe=   88 fps=5.0 q=10.0 size=       1KiB time=00:00:01.45 bitrate=   3.9kbits/s speed=0.0831x elapsed=0:00:17.44    \nframe=   93 fps=5.2 q=9.0 size=       1KiB time=00:00:01.53 bitrate=   3.7kbits/s speed=0.0853x elapsed=0:00:17.98    \nframe=   98 fps=5.3 q=8.0 size=       1KiB time=00:00:01.61 bitrate=   3.5kbits/s speed=0.0873x elapsed=0:00:18.51    \nframe=  103 fps=5.4 q=9.0 size=       1KiB time=00:00:01.70 bitrate=   3.4kbits/s speed=0.0892x elapsed=0:00:19.05    \nframe=  106 fps=5.4 q=7.0 size=       1KiB time=00:00:01.75 bitrate=   3.3kbits/s speed=0.0895x elapsed=0:00:19.56    \nframe=  112 fps=5.6 q=10.0 size=       1KiB time=00:00:01.85 bitrate=   3.1kbits/s speed=0.092x elapsed=0:00:20.10    \nframe=  116 fps=5.6 q=7.0 size=       1KiB time=00:00:01.91 bitrate=   3.0kbits/s speed=0.0928x elapsed=0:00:20.64    \nframe=  120 fps=5.7 q=9.0 size=       1KiB time=00:00:01.98 bitrate=   2.9kbits/s speed=0.0936x elapsed=0:00:21.18    \nframe=  125 fps=5.7 q=9.0 size=       1KiB time=00:00:02.06 bitrate=   2.8kbits/s speed=0.095x elapsed=0:00:21.75    \nframe=  130 fps=5.8 q=9.0 size=       1KiB time=00:00:02.15 bitrate=   2.6kbits/s speed=0.0965x elapsed=0:00:22.28    \nframe=  135 fps=5.9 q=9.0 size=       1KiB time=00:00:02.23 bitrate=   2.6kbits/s speed=0.0978x elapsed=0:00:22.82    \nframe=  139 fps=6.0 q=10.0 size=       1KiB time=00:00:02.30 bitrate=   2.5kbits/s speed=0.0985x elapsed=0:00:23.34    \nframe=  144 fps=6.0 q=9.0 size=       1KiB time=00:00:02.38 bitrate=   2.4kbits/s speed=0.0999x elapsed=0:00:23.86    \nframe=  148 fps=6.1 q=7.0 size=       1KiB time=00:00:02.45 bitrate=   2.3kbits/s speed= 0.1x elapsed=0:00:24.39    \nframe=  152 fps=6.1 q=10.0 size=       1KiB time=00:00:02.51 bitrate=   2.3kbits/s speed=0.101x elapsed=0:00:24.94    \nframe=  157 fps=6.2 q=9.0 size=       1KiB time=00:00:02.60 bitrate=   2.2kbits/s speed=0.102x elapsed=0:00:25.47    \nframe=  161 fps=6.2 q=1.0 size=       1KiB time=00:00:02.66 bitrate=   2.1kbits/s speed=0.103x elapsed=0:00:25.99    \nframe=  167 fps=6.3 q=9.0 size=       1KiB time=00:00:02.76 bitrate=   2.1kbits/s speed=0.104x elapsed=0:00:26.53    \nframe=  169 fps=6.2 q=5.0 size=       1KiB time=00:00:02.80 bitrate=   2.0kbits/s speed=0.103x elapsed=0:00:27.06    \nframe=  175 fps=6.3 q=10.0 size=       1KiB time=00:00:02.88 bitrate=   2.0kbits/s speed=0.104x elapsed=0:00:27.60    \nframe=  179 fps=6.4 q=10.0 size=       1KiB time=00:00:02.96 bitrate=   1.9kbits/s speed=0.105x elapsed=0:00:28.13    \nframe=  184 fps=6.4 q=10.0 size=       1KiB time=00:00:03.05 bitrate=   1.9kbits/s speed=0.106x elapsed=0:00:28.65    \nframe=  189 fps=6.5 q=10.0 size=       1KiB time=00:00:03.13 bitrate=   1.8kbits/s speed=0.107x elapsed=0:00:29.21    \nframe=  195 fps=6.6 q=9.0 size=       1KiB time=00:00:03.23 bitrate=   1.8kbits/s speed=0.109x elapsed=0:00:29.76    \nframe=  199 fps=6.6 q=8.0 size=       1KiB time=00:00:03.30 bitrate=   1.7kbits/s speed=0.109x elapsed=0:00:30.29    \nframe=  202 fps=6.6 q=8.0 size=       1KiB time=00:00:03.35 bitrate=   1.7kbits/s speed=0.109x elapsed=0:00:30.81    \nframe=  209 fps=6.7 q=1.0 size=       1KiB time=00:00:03.46 bitrate=   1.6kbits/s speed=0.111x elapsed=0:00:31.33    \nframe=  213 fps=6.7 q=8.0 size=       1KiB time=00:00:03.53 bitrate=   1.6kbits/s speed=0.111x elapsed=0:00:31.87    \nframe=  217 fps=6.7 q=5.0 size=       1KiB time=00:00:03.60 bitrate=   1.6kbits/s speed=0.111x elapsed=0:00:32.41    \nframe=  217 fps=6.6 q=5.0 size=       1KiB time=00:00:03.60 bitrate=   1.6kbits/s speed=0.109x elapsed=0:00:32.96    \nframe=  221 fps=6.6 q=9.0 size=       1KiB time=00:00:03.66 bitrate=   1.6kbits/s speed=0.109x elapsed=0:00:33.54    \nframe=  225 fps=6.6 q=1.0 size=       1KiB time=00:00:03.73 bitrate=   1.5kbits/s speed=0.11x elapsed=0:00:34.08    \nframe=  229 fps=6.6 q=11.0 size=       1KiB time=00:00:03.80 bitrate=   1.5kbits/s speed=0.11x elapsed=0:00:34.63    \nframe=  233 fps=6.6 q=5.0 size=       1KiB time=00:00:03.86 bitrate=   1.5kbits/s speed=0.11x elapsed=0:00:35.13    \nframe=  235 fps=6.6 q=9.0 size=       1KiB time=00:00:03.90 bitrate=   1.5kbits/s speed=0.109x elapsed=0:00:35.66    \nframe=  239 fps=6.6 q=10.0 size=       1KiB time=00:00:03.96 bitrate=   1.4kbits/s speed=0.11x elapsed=0:00:36.19    \nframe=  243 fps=6.6 q=10.0 size=       1KiB time=00:00:04.03 bitrate=   1.4kbits/s speed=0.11x elapsed=0:00:36.71    \nframe=  249 fps=6.7 q=4.0 size=       1KiB time=00:00:04.10 bitrate=   1.4kbits/s speed=0.11x elapsed=0:00:37.25    \nframe=  249 fps=6.6 q=4.0 size=       1KiB time=00:00:04.13 bitrate=   1.4kbits/s speed=0.109x elapsed=0:00:37.77    \nframe=  253 fps=6.6 q=9.0 size=       1KiB time=00:00:04.20 bitrate=   1.4kbits/s speed=0.11x elapsed=0:00:38.32    \nframe=  257 fps=6.6 q=1.0 size=       1KiB time=00:00:04.26 bitrate=   1.3kbits/s speed=0.11x elapsed=0:00:38.85    \nframe=  261 fps=6.6 q=9.0 size=       1KiB time=00:00:04.33 bitrate=   1.3kbits/s speed=0.11x elapsed=0:00:39.39    \nframe=  265 fps=6.6 q=5.0 size=       1KiB time=00:00:04.40 bitrate=   1.3kbits/s speed=0.11x elapsed=0:00:39.93    \nframe=  267 fps=6.6 q=9.0 size=       1KiB time=00:00:04.40 bitrate=   1.3kbits/s speed=0.109x elapsed=0:00:40.46    \nframe=  269 fps=6.6 q=9.0 size=       1KiB time=00:00:04.46 bitrate=   1.3kbits/s speed=0.109x elapsed=0:00:41.00    \nframe=  275 fps=6.6 q=9.0 size=       1KiB time=00:00:04.56 bitrate=   1.2kbits/s speed=0.11x elapsed=0:00:41.52    \nframe=  279 fps=6.6 q=9.0 size=       1KiB time=00:00:04.63 bitrate=   1.2kbits/s speed=0.11x elapsed=0:00:42.06    \nframe=  281 fps=6.6 q=5.0 size=       1KiB time=00:00:04.66 bitrate=   1.2kbits/s speed=0.11x elapsed=0:00:42.60    \nframe=  287 fps=6.7 q=11.0 size=       1KiB time=00:00:04.76 bitrate=   1.2kbits/s speed=0.111x elapsed=0:00:43.12    \n[out#0/matroska @ 00000223444590c0] video:1654KiB audio:0KiB subtitle:0KiB other streams:0KiB global headers:0KiB muxing overhead: 0.125266%\nframe=  300 fps=6.9 q=24.0 Lsize=    1656KiB time=00:00:04.98 bitrate=2721.6kbits/s speed=0.115x elapsed=0:00:43.41    \n",
  "seconds": 43.95632290840149,
  "probe_out": {}
}